<?xml version="1.0" encoding="UTF-8" standalone="no"?><!DOCTYPE svg PUBLIC "-//W3C//DTD SVG 1.1//EN" "http://www.w3.org/Graphics/SVG/1.1/DTD/svg11.dtd"><svg width="100%" height="100%" viewBox="0 0 1000 1000" version="1.1" xmlns="http://www.w3.org/2000/svg" xmlns:xlink="http://www.w3.org/1999/xlink" xml:space="preserve" xmlns:serif="http://www.serif.com/" style="fill-rule:evenodd;clip-rule:evenodd;stroke-linejoin:round;stroke-miterlimit:1.41421;"><g id="Layer-1" serif:id="Layer 1"><g><path d="M300.075,443.29c34.301,-1.394 157.829,-5.859 157.829,-5.859l-8.818,-24.675c-5.203,-17.054 3.282,-36.78 17.163,-45.714c12.077,-7.774 39.77,-11.502 57.625,-17.877c4.215,-1.505 7.881,-3.157 10.664,-5.044c11.886,-8.06 22.845,-25.031 19.153,-37.134l-17.296,-56.672c-3.869,-12.683 -16.337,-20.847 -31.758,-20.8c-1.745,0.006 -3.512,0.123 -5.25,0.353c-10.213,1.345 -21.077,3.752 -31.414,6.957c-9.773,3.032 -19.242,6.826 -27.38,10.975c-22.66,11.538 -24.282,21.326 -19.308,37.628l6.333,20.754l59.516,-18.156l3.382,11.096l-200.136,103.926c0,0 -4.276,2.032 -7.533,4.021c-2.206,1.347 -3.723,2.821 -3.982,3.067c-4.99,4.732 -5.951,9.425 -5.937,14.408c0.027,8.349 8.127,16.429 13.421,17.917c2.859,0.804 3.17,0.668 5.186,0.794c4.08,0.255 8.54,0.035 8.54,0.035Zm11.104,-11.507c-1.112,0.339 -2.236,0.503 -3.344,0.506c-5.033,0.015 -9.71,-3.28 -11.273,-8.406c-1.915,-6.273 1.528,-12.9 7.697,-14.783c1.097,-0.334 2.208,-0.496 3.305,-0.499c5.042,-0.016 9.761,3.315 11.332,8.468c1.909,6.252 -1.57,12.839 -7.717,14.714Zm130.849,-167.423c1.112,-0.336 2.238,-0.496 3.344,-0.496c5.035,0 9.702,3.31 11.25,8.44c1.893,6.28 -1.568,12.896 -7.744,14.759c-1.097,0.332 -2.21,0.489 -3.305,0.489c-5.042,0 -9.752,-3.344 -11.308,-8.503c-1.889,-6.257 1.609,-12.833 7.763,-14.689Z"/><path d="M715.37,278.989c9.538,0 16.713,9.037 16.452,18.575c-0.147,5.417 -2.935,11.267 -7.105,14.075c-1.631,1.098 -4.589,2.733 -6.213,3.489c-0.771,0.359 -3.967,2.052 -6.044,2.968c-3.325,1.466 -5.648,2.634 -5.648,2.634l-182.667,93.318l-2.995,1.53l0.971,3.213l2.285,7.552l1.165,3.828l3.862,-1.232l55.64,-16.922l5.685,18.573c3.753,12.438 -2.635,23.578 -18.985,34.171c-18.461,11.975 -35.609,16.228 -57.335,16.228l-0.541,0c-10.804,0 -29.653,-1.314 -34.489,-17.339l-17.114,-55.648c-3.067,-10.164 6.958,-25.578 15.255,-30.96c14.693,-9.532 44.937,-7.888 69.899,-24.513c15.63,-10.41 26.943,-29.476 21.506,-47.502l-7.118,-24.252c0,0 24.027,-0.283 53.047,-0.623c43.964,-0.515 99.388,-1.163 100.089,-1.163l0.398,0Zm-147.688,170.731c-5.768,0.017 -10.458,-4.644 -10.477,-10.411c-0.018,-5.768 4.645,-10.457 10.413,-10.476c5.767,-0.017 10.456,4.644 10.474,10.412c0.017,5.767 -4.643,10.457 -10.41,10.475Zm135.822,-140.57c-5.767,0 -10.442,-4.676 -10.442,-10.443c0,-5.768 4.675,-10.443 10.442,-10.443c2.489,0 4.776,0.871 6.571,2.325c2.363,1.914 3.874,4.839 3.874,8.118c0,5.767 -4.677,10.443 -10.445,10.443Z"/></g><path d="M324.787,830.39c0,-18.921 -15.498,-29.79 -42.671,-29.79l-48.91,0l0,60.183l48.91,0c27.173,0.201 42.671,-10.87 42.671,-30.393m-7.044,-66.02c0,-17.511 -13.083,-27.575 -35.627,-27.575l-48.91,0l0,55.553l48.91,0c22.544,0 35.627,-10.064 35.627,-27.978m8.453,-1.006c0,17.31 -9.862,29.185 -27.173,32.406c21.739,2.616 34.218,15.9 34.218,35.626c0,23.952 -18.719,37.841 -50.52,37.841l-57.969,0l0,-140.695l57.565,0c27.575,0 43.879,12.882 43.879,34.822" style="fill-rule:nonzero;"/><path d="M461.455,728.542l0,8.253l-82.322,0l0,56.156l73.265,0l0,8.454l-73.265,0l0,59.578l84.939,0l0,8.253l-93.393,0l0,-140.694l90.776,0Z" style="fill-rule:nonzero;"/><path d="M591.683,728.542l0,8.253l-82.322,0l0,56.156l73.265,0l0,8.454l-73.265,0l0,59.578l84.939,0l0,8.253l-93.393,0l0,-140.694l90.776,0Z" style="fill-rule:nonzero;"/><path d="M638.78,728.542l56.56,110.703l56.157,-110.703l11.674,0l0,140.694l-8.051,0l-0.201,-129.019l-57.768,113.722l-3.824,0l-58.17,-113.722l0,129.019l-8.051,0l0,-140.694l11.674,0Z" style="fill-rule:nonzero;"/></g></svg>